<svg xmlns="http://www.w3.org/2000/svg" version="1.1" xmlns:xlink="http://www.w3.org/1999/xlink" xmlns:svgjs="http://svgjs.dev/svgjs" width="2000" height="1252" viewBox="0 0 2000 1252"><g transform="matrix(1,0,0,1,-1.2121212121212466,-2.01935483870966)"><svg viewBox="0 0 396 248" data-background-color="#000000" preserveAspectRatio="xMidYMid meet" height="1252" width="2000" xmlns="http://www.w3.org/2000/svg" xmlns:xlink="http://www.w3.org/1999/xlink"><g id="tight-bounds" transform="matrix(1,0,0,1,0.2400000000000091,0.4000000000000057)"><svg viewBox="0 0 395.52 247.2" height="247.2" width="395.52"><g><svg></svg></g><g><svg viewBox="0 0 395.52 247.2" height="247.2" width="395.52"><mask id="39c51b21-592e-417f-be3d-b03d274de7e6"><rect width="395.52" height="247.2" fill="white"></rect><g transform="matrix(1,0,0,1,104.29847623713866,37.08)" id="clone"><svg viewBox="0 0 186.92304752572267 173.04" height="173.04" width="186.92304752572267"><g><svg viewBox="0 0 186.92304752572267 173.04" height="173.04" width="186.92304752572267"><g><svg viewBox="0 0 186.92304752572267 173.04" height="173.04" width="186.92304752572267"><g><svg viewBox="0 0 186.92304752572267 173.04" height="173.04" width="186.92304752572267"><g id="SvgjsG5903"><svg viewBox="0 0 186.92304752572267 173.04" height="173.04" width="186.92304752572267" id="SvgjsSvg5902"><g><svg viewBox="0 0 186.92304752572267 173.04" height="173.04" width="186.92304752572267"><g transform="matrix(1,0,0,1,0,0)"><svg width="186.92304752572267" viewBox="-2.02 -37.86 44.06 40.86" height="173.04" data-palette-color="#f8fddd"><path d="M5.96-9.67L4.44 0 0.98 0 6.49-34.86 13.48-34.86 19.04 0 15.58 0 14.06-9.67 5.96-9.67ZM9.06-31.74L7.37-20.39 6.27-12.79 13.75-12.79 12.7-20.41 10.99-31.74 9.06-31.74ZM25.95-9.67L24.44 0 20.97 0 26.49-34.86 33.47-34.86 39.04 0 35.57 0 34.06-9.67 25.95-9.67ZM29.05-31.74L27.37-20.39 26.27-12.79 33.74-12.79 32.69-20.41 30.98-31.74 29.05-31.74Z" opacity="1" transform="matrix(1,0,0,1,0,0)" fill="black" class="wordmark-text-0" id="SvgjsPath5901" stroke-width="5" stroke="black" stroke-linejoin="round"></path></svg></g></svg></g></svg></g></svg></g></svg></g></svg></g></svg></g></mask><g mask="url(#39c51b21-592e-417f-be3d-b03d274de7e6)"><g><path d="M169.043 178.623l-10.777 68.565h-24.534l39.069-247.176h49.563l39.424 247.176h-24.534l-10.777-68.565zM191.024 22.134l-11.983 80.478-7.8 53.888h53.038l-7.445-54.03-12.125-80.336z" fill="#ffffff" fill-rule="nonzero" stroke="none" stroke-width="1" stroke-linecap="butt" stroke-linejoin="miter" stroke-miterlimit="10" stroke-dasharray="" stroke-dashoffset="0" font-family="none" font-weight="none" font-size="none" text-anchor="none" style="mix-blend-mode: normal" data-fill-palette-color="tertiary"></path></g></g><g transform="matrix(1,0,0,1,104.29847623713866,37.08)"><svg viewBox="0 0 186.92304752572267 173.04" height="173.04" width="186.92304752572267"><g><svg viewBox="0 0 186.92304752572267 173.04" height="173.04" width="186.92304752572267"><g><svg viewBox="0 0 186.92304752572267 173.04" height="173.04" width="186.92304752572267"><g><svg viewBox="0 0 186.92304752572267 173.04" height="173.04" width="186.92304752572267"><g id="textblocktransform"><svg viewBox="0 0 186.92304752572267 173.04" height="173.04" width="186.92304752572267" id="textblock"><g><svg viewBox="0 0 186.92304752572267 173.04" height="173.04" width="186.92304752572267"><g transform="matrix(1,0,0,1,0,0)"><svg width="186.92304752572267" viewBox="-2.02 -37.86 44.06 40.86" height="173.04" data-palette-color="#f8fddd"><path d="M5.96-9.67L4.44 0 0.98 0 6.49-34.86 13.48-34.86 19.04 0 15.58 0 14.06-9.67 5.96-9.67ZM9.06-31.74L7.37-20.39 6.27-12.79 13.75-12.79 12.7-20.41 10.99-31.74 9.06-31.74ZM25.95-9.67L24.44 0 20.97 0 26.49-34.86 33.47-34.86 39.04 0 35.57 0 34.06-9.67 25.95-9.67ZM29.05-31.74L27.37-20.39 26.27-12.79 33.74-12.79 32.69-20.41 30.98-31.74 29.05-31.74Z" opacity="1" transform="matrix(1,0,0,1,0,0)" fill="#ffffff" class="wordmark-text-0" data-fill-palette-color="primary" id="text-0"></path></svg></g></svg></g></svg></g></svg></g></svg></g></svg></g></svg></g></svg></g><defs></defs></svg><rect width="395.52" height="247.2" fill="none" stroke="none" visibility="hidden"></rect></g></svg></g></svg>